<svg id="pngc-logo" height="200" width="500"
    xmlns="http://www.w3.org/2000/svg" viewBox="0 0 374.7 120.1">
    <style>.blue-box{fill:#364588}.red-box{fill:#983036}</style>
    <g id="logo">
        <path d="M143.8 79.1c1.6 0 3 .2 4.1 1.1 1.2 1 1.5 2.4 1.5 3.5 0 2.3-1.4 4.5-5.1 4.5h-1.6v7h-1.8V79.1h2.9zm-1.2 7.5h1.5c2.1 0 3.4-1.1 3.4-2.9 0-2.6-2.4-2.8-3.6-2.8h-1.3v5.7zm17.6 6.1c-.3.6-.7 1.2-1.2 1.6-.9.8-2.1 1.2-3.3 1.2-2.4 0-5-1.5-5-5.2 0-3 1.8-5.3 4.9-5.3 2 0 3.2 1 3.8 1.8.6.9 1 2.4.9 3.8h-7.8c0 2.1 1.5 3.4 3.2 3.4.8 0 1.5-.2 2.1-.7.5-.4.8-.9 1-1.4l1.4.8zm-1.7-3.6c-.3-1.6-1.5-2.6-3-2.6s-2.7 1.1-3 2.6h6zm4.4-3.9h1.7v1.2c.3-.4 1.2-1.4 2.9-1.4 1.2 0 2.3.5 2.9 1.4.5.8.6 1.6.6 2.7v6.2h-1.7v-6.2c0-.6 0-1.3-.5-1.8-.3-.4-.9-.7-1.6-.7-.6 0-1.3.2-1.8.8-.7.8-.7 2-.7 2.7v5.2H163l-.1-10.1zm11.4 0h1.7v1.2c.3-.4 1.2-1.4 2.9-1.4 1.2 0 2.3.5 2.9 1.4.5.8.6 1.6.6 2.7v6.2h-1.7v-6.2c0-.6 0-1.3-.5-1.8-.3-.4-.9-.7-1.6-.7-.6 0-1.3.2-1.8.8-.7.8-.7 2-.7 2.7v5.2h-1.7l-.1-10.1zm17.4 10.1V78.5l12.6 13.2V79.1h1.8V96l-12.6-13.2v12.5h-1.8zm27-2.6c-.3.6-.7 1.2-1.2 1.6-.9.8-2.1 1.2-3.3 1.2-2.4 0-5-1.5-5-5.2 0-3 1.8-5.3 4.9-5.3 2 0 3.2 1 3.8 1.8.6.9 1 2.4.9 3.8H211c0 2.1 1.5 3.4 3.2 3.4.8 0 1.5-.2 2.1-.7.5-.4.8-.9 1-1.4l1.4.8zm-1.7-3.6c-.3-1.6-1.5-2.6-3-2.6s-2.7 1.1-3 2.6h6zm6.2 2c0 .7 0 1.5.5 2.2.3.3.8.8 1.8.8s1.5-.4 1.8-.8c.5-.6.5-1.5.5-2.2v-5.9h1.7v6c0 1.2-.1 2.2-.9 3-.9.9-2.1 1.3-3.1 1.3s-2.2-.3-3.1-1.3c-.8-.9-.9-1.8-.9-3v-6h1.7v5.9zm9.6-5.9h1.7v1.1c.2-.3.9-1.3 2.3-1.3.5 0 1.1.2 1.5.4l-.8 1.6c-.4-.3-.8-.3-1-.3-.7 0-1.1.3-1.4.6-.3.4-.6 1.1-.6 2.7v5.3h-1.7V85.2zm5.9 5.1c0-3 2.3-5.3 5.3-5.3 3.1 0 5.3 2.2 5.3 5.3 0 3-2.3 5.3-5.3 5.3s-5.3-2.3-5.3-5.3zm1.8 0c0 2.5 1.7 3.7 3.5 3.7s3.5-1.3 3.5-3.7c0-2.5-1.7-3.7-3.5-3.7-1.8-.1-3.5 1.2-3.5 3.7zm19.2-12.7h1.7v17.6h-1.7v-1.4c-.6.7-1.7 1.7-3.4 1.7-2.5 0-4.9-1.8-4.9-5.3s2.3-5.2 4.9-5.2c1.9 0 3 1.1 3.4 1.7v-9.1zm-6.5 12.6c0 2.2 1.2 3.8 3.3 3.8s3.3-1.8 3.3-3.7c0-2.6-1.8-3.7-3.3-3.7-1.7-.1-3.3 1.2-3.3 3.6zm20.4 2.5c-.3.6-.7 1.2-1.2 1.6-.9.8-2.1 1.2-3.3 1.2-2.4 0-5-1.5-5-5.2 0-3 1.8-5.3 4.9-5.3 2 0 3.2 1 3.8 1.8.6.9 1 2.4.9 3.8h-7.8c0 2.1 1.5 3.4 3.2 3.4.8 0 1.5-.2 2.1-.7.5-.4.8-.9 1-1.4l1.4.8zm-1.7-3.6c-.3-1.6-1.5-2.6-3-2.6s-2.7 1.1-3 2.6h6zm12.2-3.9h1.7V95c0 1.1 0 2.6-1 3.9-.8 1-2.1 1.9-4 1.9-1.7 0-2.9-.7-3.6-1.4-.7-.7-1.3-1.8-1.3-3.2h1.7c0 .8.3 1.6.8 2.1.7.8 1.6 1 2.4 1 1.2 0 2.1-.4 2.7-1.4.5-.8.6-1.7.6-2.6v-1.5c-.6.7-1.7 1.7-3.4 1.7-1.5 0-2.7-.6-3.4-1.4-.7-.7-1.5-1.9-1.5-4 0-2 .7-3.2 1.5-3.9.8-.8 2.1-1.4 3.4-1.4 1.5 0 2.6.6 3.4 1.7v-1.3zm-5.5 2.3c-.8.9-1 1.9-1 2.8s.2 2.1 1.1 3c.6.5 1.2.8 2.2.8s1.6-.3 2.2-.8c.7-.7 1.1-1.7 1.1-2.9s-.4-2.2-1.1-2.8c-.6-.6-1.4-.9-2.3-.9-1-.2-1.8.3-2.2.8zm19.4 5.2c-.3.6-.7 1.2-1.2 1.6-.9.8-2.1 1.2-3.3 1.2-2.4 0-5-1.5-5-5.2 0-3 1.8-5.3 4.9-5.3 2 0 3.2 1 3.8 1.8.6.9 1 2.4.9 3.8h-7.8c0 2.1 1.5 3.4 3.2 3.4.8 0 1.5-.2 2.1-.7.5-.4.8-.9 1-1.4l1.4.8zm-1.7-3.6c-.3-1.6-1.5-2.6-3-2.6s-2.7 1.1-3 2.6h6zm4.5-3.9h1.7v1.2c.3-.4 1.2-1.4 2.9-1.4 1.2 0 2.3.5 2.9 1.4.5.8.6 1.6.6 2.7v6.2h-1.7v-6.2c0-.6 0-1.3-.5-1.8-.3-.4-.9-.7-1.6-.7-.6 0-1.3.2-1.8.8-.7.8-.7 2-.7 2.7v5.2h-1.7l-.1-10.1zm20.2 7.5c-.3.6-.7 1.2-1.2 1.6-.9.8-2.1 1.2-3.3 1.2-2.4 0-5-1.5-5-5.2 0-3 1.8-5.3 4.9-5.3 2 0 3.2 1 3.8 1.8.6.9 1 2.4.9 3.8h-7.8c0 2.1 1.5 3.4 3.2 3.4.8 0 1.5-.2 2.1-.7.5-.4.8-.9 1-1.4l1.4.8zm-1.7-3.6c-.3-1.6-1.5-2.6-3-2.6s-2.7 1.1-3 2.6h6zm4.5-3.9h1.7v1.1c.2-.3.9-1.3 2.3-1.3.5 0 1.1.2 1.5.4l-.8 1.6c-.4-.3-.8-.3-1-.3-.7 0-1.1.3-1.4.6-.3.4-.6 1.1-.6 2.7v5.3h-1.7V85.2zm14.3 0h1.7v10h-1.7v-1.4c-.6.7-1.7 1.7-3.4 1.7-2.5 0-4.9-1.8-4.9-5.3s2.3-5.2 4.9-5.2c1.9 0 3 1.1 3.4 1.7v-1.5zm-6.5 5c0 2.2 1.2 3.8 3.3 3.8 2.1 0 3.3-1.8 3.3-3.7 0-2.6-1.8-3.7-3.3-3.7-1.7-.1-3.3 1.2-3.3 3.6zm13.3-3.4v8.4h-1.7v-8.4h-1.1v-1.6h1.1v-3.6h1.7v3.6h1.7v1.6h-1.7zm4.3-6.6c.7 0 1.2.6 1.2 1.2s-.6 1.2-1.2 1.2-1.2-.6-1.2-1.2.5-1.2 1.2-1.2zm.9 5v10h-1.7v-10h1.7zm2.6 5.1c0-3 2.2-5.3 5.3-5.3 3.1 0 5.3 2.2 5.3 5.3 0 3-2.3 5.3-5.3 5.3s-5.3-2.3-5.3-5.3zm1.8 0c0 2.5 1.7 3.7 3.5 3.7s3.5-1.3 3.5-3.7c0-2.5-1.7-3.7-3.5-3.7-1.8-.1-3.5 1.2-3.5 3.7zm11.5-5.1h1.7v1.2c.3-.4 1.2-1.4 2.9-1.4 1.2 0 2.3.5 2.9 1.4.5.8.6 1.6.6 2.7v6.2h-1.7v-6.2c0-.6 0-1.3-.5-1.8-.3-.4-.9-.7-1.6-.7-.6 0-1.3.2-1.8.8-.7.8-.7 2-.7 2.7v5.2H366V85.2zm-216.8 25h6.7v.4c0 1.8-.5 3.7-1.5 5.1-.5.7-2.3 2.9-6 2.9-4.8 0-8.4-3.7-8.4-8.3 0-4.7 3.6-8.3 8.4-8.3 1.5 0 3.4.4 4.9 1.6.7.6 1.4 1.3 1.9 1.9l-1.3 1.2c-.5-.7-1-1.2-1.5-1.7-.8-.6-2-1.4-3.9-1.4-3.9 0-6.6 2.9-6.6 6.7 0 4.4 3.5 6.6 6.6 6.6 2.2 0 4-1.1 4.9-2.7.3-.5.6-1.3.7-2.3h-4.8l-.1-1.7zm18.5 5.5c-.3.6-.7 1.2-1.2 1.6-.9.8-2.1 1.2-3.3 1.2-2.4 0-5-1.5-5-5.2 0-3 1.8-5.3 4.9-5.3 2 0 3.2 1 3.8 1.8.6.9 1 2.4.9 3.8H160c0 2.1 1.5 3.4 3.2 3.4.8 0 1.5-.2 2.1-.7.5-.4.8-.9 1-1.4l1.4.8zm-1.8-3.5c-.3-1.6-1.5-2.6-3-2.6s-2.7 1.1-3 2.6h6zm4.5-3.9h1.7v1.2c.3-.4 1.2-1.4 2.9-1.4 1.2 0 2.3.5 2.9 1.4.5.8.6 1.6.6 2.7v6.2h-1.7v-6.2c0-.6 0-1.3-.5-1.8-.3-.4-.9-.7-1.6-.7-.6 0-1.3.2-1.8.8-.7.8-.7 2-.7 2.7v5.2h-1.7l-.1-10.1zm10.7 5c0-3 2.2-5.3 5.3-5.3s5.3 2.2 5.3 5.3c0 3-2.3 5.3-5.3 5.3s-5.3-2.2-5.3-5.3zm1.8 0c0 2.5 1.7 3.7 3.5 3.7s3.5-1.3 3.5-3.7c0-2.5-1.7-3.7-3.5-3.7s-3.5 1.3-3.5 3.7zm11.5-5h1.7v1.1c.6-.8 1.4-1.3 2.5-1.3 1.8 0 2.5 1.3 2.7 1.6 1-1.5 2.3-1.6 3-1.6 3 0 3.3 2.5 3.3 3.9v6.4H206v-6.1c0-1.1-.1-2.6-1.8-2.6-2 0-2.2 1.9-2.2 3.1v5.6h-1.7v-6c0-.7 0-2.8-1.8-2.8-2 0-2.2 2.1-2.2 3.3v5.5h-1.7v-10.1h-.2zm17.5-5.1c.7 0 1.2.6 1.2 1.2s-.6 1.2-1.2 1.2c-.7 0-1.2-.6-1.2-1.2s.5-1.2 1.2-1.2zm.9 5.1v10H211v-10h1.8zm11.1 2.8c-.9-1.2-2.2-1.5-3.1-1.5-1.9 0-3.6 1.3-3.6 3.7 0 2.4 1.7 3.7 3.5 3.7 1 0 2.3-.5 3.2-1.6v2.1c-1.1.8-2.2 1-3.2 1-3.1 0-5.4-2.2-5.4-5.2 0-3.1 2.3-5.3 5.4-5.3 1.6 0 2.6.6 3.1 1v2.1h.1zm6.9-.5c-.2-.6-.8-1-1.4-1-.6 0-1.2.4-1.2 1.1s.5.9 1.6 1.4c1.5.6 2.1 1.1 2.5 1.5.4.5.5 1.1.5 1.6 0 2.1-1.5 3.3-3.5 3.3-.4 0-2.7 0-3.5-2.6l1.5-.6c.2.5.8 1.6 2 1.6 1.1 0 1.6-.8 1.6-1.6 0-.9-.7-1.3-1.6-1.7-1.2-.5-2-.9-2.4-1.5-.4-.5-.5-1-.5-1.5 0-1.8 1.2-2.8 2.9-2.8.5 0 2 .1 2.8 1.8l-1.3 1zm22.8-4.9c-.5-.5-1.3-1.1-2.1-1.5s-1.8-.6-2.8-.6c-3.7 0-6.5 3-6.5 6.7 0 4.4 3.6 6.6 6.5 6.6 1.1 0 2.2-.3 3-.7.9-.5 1.6-1.1 1.9-1.4v2.2c-1.8 1.3-3.7 1.6-4.9 1.6-4.8 0-8.3-3.6-8.3-8.3 0-4.8 3.6-8.4 8.4-8.4 1 0 2.8.1 4.8 1.6v2.2zm11.7 10c-.3.6-.7 1.2-1.2 1.6-.9.8-2.1 1.2-3.3 1.2-2.4 0-5-1.5-5-5.2 0-3 1.8-5.3 4.9-5.3 2 0 3.2 1 3.8 1.8.6.9 1 2.4.9 3.8h-7.8c0 2.1 1.5 3.4 3.2 3.4.8 0 1.5-.2 2.1-.7.5-.4.8-.9 1-1.4l1.4.8zm-1.7-3.5c-.3-1.6-1.5-2.6-3-2.6s-2.7 1.1-3 2.6h6zm4.5-3.9h1.7v1.2c.3-.4 1.2-1.4 2.9-1.4 1.2 0 2.3.5 2.9 1.4.5.8.6 1.6.6 2.7v6.2h-1.7v-6.2c0-.6 0-1.3-.5-1.8-.3-.4-.9-.7-1.6-.7-.6 0-1.3.2-1.8.8-.7.8-.7 2-.7 2.7v5.2h-1.7l-.1-10.1zm13.1 1.6v8.4h-1.7v-8.4h-1.1v-1.6h1.1v-3.6h1.7v3.6h1.7v1.6h-1.7zm12.3 5.8c-.3.6-.7 1.2-1.2 1.6-.9.8-2.1 1.2-3.3 1.2-2.4 0-5-1.5-5-5.2 0-3 1.8-5.3 4.9-5.3 2 0 3.2 1 3.8 1.8.6.9 1 2.4.9 3.8h-7.8c0 2.1 1.5 3.4 3.2 3.4.8 0 1.5-.2 2.1-.7.5-.4.8-.9 1-1.4l1.4.8zm-1.7-3.5c-.3-1.6-1.5-2.6-3-2.6s-2.7 1.1-3 2.6h6zm4.5-3.9h1.7v1.1c.2-.3.9-1.3 2.3-1.3.5 0 1.1.2 1.5.4l-.8 1.5c-.4-.3-.8-.3-1-.3-.7 0-1.1.3-1.4.6-.3.4-.6 1.1-.6 2.7v5.3h-1.7v-10z" fill="#000000"></path>
        <path class="blue-box" d="M138.8 2.4h20.8c6.8 0 12.2 1.5 16.2 4.5s6 6.9 6 11.7c0 4.7-1.7 8.4-5.2 10.9s-8.4 3.8-14.9 3.8c-2.5 0-5.4-.2-8.7-.6v16c0 3.4.5 5.8 1.4 7.1s2.6 1.9 5.1 1.9v1.7H139v-1.7c2.5 0 4.2-.7 5.1-2 .9-1.4 1.4-3.6 1.4-6.8V13.1c0-3.4-.5-5.8-1.4-7.1s-2.6-2-5.1-2V2.4h-.2zm21.1 2.2h-7v25.6c1.9.6 4.3 1 7 1 4.3 0 7.7-1.1 10.1-3.3 2.5-2.2 3.7-5.2 3.7-9 0-4.1-1.2-7.5-3.7-10.2-2.4-2.8-5.8-4.1-10.1-4.1zm70.3-.5V2.4h17.2v1.7c-2.8 0-4.7.6-5.7 1.9-1.1 1.3-1.6 3.6-1.6 7v46.3h-1.7L198 9.8v40c0 2.8.6 4.8 1.7 6.1 1.1 1.2 3.1 1.8 5.8 1.8v1.7h-17.3v-1.7c2.8 0 4.6-.7 5.6-2.2 1-1.4 1.5-4 1.5-7.6V14.6c0-3.6-.7-6.2-2-7.8s-3.5-2.5-6.5-2.8V2.4h14.6l35.8 44.4V13.4c0-3.5-.5-5.9-1.5-7.3-1-1.4-2.8-2-5.5-2zm83.4 30.6v1.7c-2.5 0-4.3.6-5.4 1.7-1.1 1.2-1.6 3.1-1.6 6v15.3c-1.3.4-3.8.7-7.5 1-3.6.3-6.5.4-8.5.4-10.5 0-18.7-2.6-24.6-7.8s-8.8-12-8.8-20.5c0-5.9 1.3-11.3 3.9-16 2.6-4.8 6.2-8.5 10.8-11.3 4.6-2.8 9.5-4.2 14.7-4.2 3.1 0 6.5.6 10.2 1.7 2.3.7 4.1 1 5.3 1 1.6 0 2.7-.6 3.2-1.9h1.8v16.8h-1.6c-.6-4.7-2.8-8.4-6.3-11.2-3.6-2.8-7.8-4.2-12.6-4.2-6 0-11 2.4-14.8 7.2-3.9 4.8-5.8 11-5.8 18.6 0 8.4 2.2 15.3 6.7 20.8s10 8.3 16.8 8.3c6.4 0 9.6-2 9.6-6.1v-6.2c0-3.5-.5-6-1.4-7.4s-2.6-2.1-4.9-2.1h-2.2v-1.7l23 .1zm59.1-33.1v17H371c-1.4-5.3-3.5-9.2-6.5-11.7s-7-3.7-12-3.7c-6.5 0-11.6 2.3-15.4 7s-5.7 10.9-5.7 18.7c0 8.5 2 15.4 6 20.6s9.2 7.8 15.7 7.8c9 0 15.6-4.2 19.9-12.5l1.5 1.4c-1.9 4.5-5 8.1-9.3 10.8-4.3 2.6-9.1 4-14.5 4-5.1 0-9.9-1.2-14.3-3.6-4.4-2.4-7.8-5.8-10.2-10-2.4-4.3-3.6-9.2-3.6-14.7 0-9.1 2.8-16.6 8.4-22.5C336.6 4 343.7 1 352.2 1c2.8 0 6.5.5 10.8 1.5 2.5.6 4.2.9 5.1.9 1.5 0 2.5-.6 3.1-1.8h1.5zM3.9 62.1L.1 66.6v-4.5zm3.4 4.7C5.1 69.3 3 71.9.8 74.4c-.2.2-.5.3-.7.3v-4l6.3-7.4c.4 1 .9 1.9 1.2 2.8 0 .2-.1.5-.3.7zm2.5 8.7c-2.2-.1-4.2-.1-6.4-.2l5.1-6.1c.5 2.2.9 4.2 1.3 6.3zm11.8 5.9l-4.1 4.8c-.5-1.9-1-3.6-1.5-5.5 1.9.3 3.7.5 5.6.7zm6.6 1l-8.6 10.1c-.4-1.1-.7-2-1-3-.1-.2 0-.6.2-.8 1.8-2.2 3.7-4.4 5.6-6.6.2-.2.5-.4.7-.3.9.2 1.9.4 3.1.6zm5.3 2.1l-11 13-1.5-2.1c-.1-.1 0-.4.1-.6l9.5-11.2c.1-.2.5-.3.6-.2.8.3 1.5.7 2.3 1.1zm3.4 5c-3 3.5-6 7.1-9 10.6-.1.2-.5.3-.7.2-.9-.3-1.8-.7-2.7-1.1l11-12.9c.5.9 1.1 1.7 1.6 2.6.1.1 0 .4-.2.6zm2.2 5.7c-1.6 2-3.3 3.9-5 5.9-.3.4-.6.5-1.1.4-.8-.2-1.6-.3-2.6-.4l7.9-9.3c.3 1 .6 1.9.9 2.8.2.2 0 .4-.1.6zm2.4 7.2c-1.6-.2-3.1-.3-4.8-.5l3.5-4.2c.5 1.7.9 3.2 1.3 4.7z"></path>
        <path class="blue-box" d="M46.9 120H.1V79c1.3.4 2.6.7 3.9.8 2.2.3 4.3.4 6.6.7.1.3.1.5.2.8.9 3.7 1.9 7.5 3.4 11 2.2 5.1 5.5 8.9 10.7 11.2 3.6 1.6 7.3 2.5 11.1 3.1l5.7.9c.3 0 .6.1.9.1.1.5.2.9.3 1.4.7 3.2 1.5 6.3 3 9.2.3.7.6 1.3 1 1.8zm6.6-12.2l-4.8 5.6c-.4-2-.8-3.8-1.1-5.8 2 .1 3.9.1 5.9.2zM58 62.1v42.2c-2.1-.7-4.3-1.1-6.5-1.2-1.5-.1-3.1-.3-4.5-.4-.5-1.5-1-2.9-1.5-4.3-.1-.3-.2-.7-.3-1-1.1-3.4-2.6-6.7-4.4-9.8-2.7-4.6-6.6-7.9-11.7-9.6-3-1-6-1.6-9.1-2-1.7-.2-3.3-.4-5-.6-.1-.4-.2-.7-.2-1-.7-3.5-1.7-7-3.4-10.2-.4-.7-.8-1.4-1.3-2H58v-.1zm0 46.4v2.6l-7.1 8.3c-.4-1.1-.8-2-1.2-2.9-.1-.1.1-.4.2-.6 2.1-2.4 4.2-4.9 6.3-7.3.2-.2.5-.3.8-.3.3.1.6.2 1 .2zm0 6.6v4.9h-4.2c1.2-1.4 2.3-2.7 3.5-4.1.2-.3.4-.5.7-.8zM77.2 14.2c0 .1-.4.4-.6.4H73c-.2 0-.5-.3-.6-.5V9.9h4.8v4.3zm27.5 9c2.4 0 2.4 0 2.4 2.4s0 2.4-2.4 2.4-2.4 0-2.4-2.4 0-2.4 2.4-2.4zm5.6 17.8c-.1-1.4 0-2.7 0-4.2h4.8v4.3c0 .1-.4.4-.7.4H111c-.3 0-.7-.3-.7-.5zm-29-11.3v4.7h-4.7v-4c0-.2.3-.6.5-.6 1.4-.2 2.8-.1 4.2-.1zm-8.7 14.2c2.3 0 2.3 0 2.3 2.3v.1c0 2.5 0 2.5-2.5 2.5-2.3 0-2.3 0-2.3-2.4 0-2.5 0-2.5 2.5-2.5z"></path>
        <path class="blue-box" d="M92.6 57.6v.4h-2V32.8c0-1.5-.2-1.8-1.7-1.8h-5.2v-1.2c0-1.6-.9-2.5-2.4-2.5h-4.6c-1.4 0-2.3.9-2.4 2.4v4.8c0 1.4.9 2.3 2.4 2.3h4.5c1.6 0 2.5-.9 2.5-2.4 0-.8.2-1.1 1.1-1.1.9.1 1.8.1 2.6 0s1.1.2 1.1 1.1v23.7h-1.7v-11c0-1.5-.3-1.8-1.8-1.8h-7.6c0-.5 0-1-.1-1.4-.1-1.2-.9-2.1-2.1-2.1-1.7-.1-3.5-.1-5.3 0-1.2 0-2 .9-2 2.1V49c0 1.3.9 2.1 2.2 2.1h4.7c1.5 0 2.4-.9 2.3-2.3 0-1.1.4-1.4 1.4-1.3 1.9.1 3.8 0 5.7 0V58H62.1V23h29.4c.8 0 1.1.2 1.1 1v33.6z"></path>
        <path class="blue-box" d="M120 .1V58H99.1V40h8c.7 0 .9.2.9.9 0 2.2.8 2.9 2.9 2.9h4c1.6 0 2.4-.9 2.4-2.4v-4.6c0-1.5-.9-2.4-2.4-2.4h-4.5c-1.6 0-2.5.8-2.5 2.4 0 .9-.3 1-1.1 1h-8.3c-1.6 0-1.8.2-1.8 1.8V58h-2V22.8c0-1.7-.2-1.9-1.9-1.9H62.1V.1h26v11.1h-8.5c0-.4 0-.8-.1-1.2 0-1.6-.9-2.5-2.5-2.5h-4.5c-1.5 0-2.4.9-2.4 2.4v4.5c0 1.6.9 2.5 2.5 2.6h4.2c1.8 0 2.6-.7 2.6-2.6v-.9h9.1c1.4 0 1.7-.3 1.7-1.6V.2h13.2v20.2c0 .2 0 .3-.1.6-.4 0-.9 0-1.3.1-1.2.1-2.1.9-2.1 2.2v5c0 1.3.9 2.2 2.3 2.2h4.8c1.4 0 2.3-.8 2.3-2.3v-4.8c0-1.5-.9-2.3-2.4-2.3-1.1 0-1.3-.4-1.3-1.3 0-6.5 0-13 .1-19.4V.1H120z"></path>
        <path class="red-box" d="M99.6 108.1c.2 1.2.5 2.4 1 3.5-.2.3-.5.4-.8.6-.3.1-.6.2-1 .3l-.1-.1c0-.1-.1-.2-.1-.4-.1-.3-.1-.5-.2-.8-.7-1.8-1.9-3-3.7-3.6-.7-.2-1.4-.5-2.1-.7-.6-.2-1-.6-1.3-1.2-.1-.2-.2-.6-.4-.9 1.8.6 3.4.4 4.8-.6l.1.2.6 1.2c.8 1.1 1.8 2 3.2 2.5zm8.8-7.4c-.4.8-.8 1.4-1.3 1.8-.6.5-1.3.9-2 1s-1.4.4-2 .9c-.4.3-.7.7-1.1 1-.5.5-.9.6-1.6.4-.9-.3-1.5-.8-1.9-1.6-.1-.3-.3-.6-.4-.9 2.1-.1 3.7-.8 4.9-2.3 2 .5 3.8.4 5.4-.3zm1.5-10.2c.2.6.4 1.2.6 1.9-.7-.5-1.7-.6-2.7-.3-.2.1-.4.1-.7.2l-.3.1c-.3.1-.6.1-.8-.1l-.6-.6c-.4-.4-1-.5-1.4-.1-.2.2-.3.4-.3.7 0 .3.1.5.3.8.3.3.5.5.8.7.8.6 1.7.8 2.7.5l1-.3c.3-.1.6-.1.8.1.3.2.5.5.6.9-.1.3-.1.6-.1.9 0 1-.4 1.7-1.3 2.3-.8.5-1.8.9-2.9.9-.8.1-1.6 0-2.2-.2 0-.3.1-.5.3-.7.8-1 1-2.1.6-3.5-.3-.9-.9-1.6-1.8-2-.4-.2-.9-.3-1.3-.3h-.2c-.3-.1-.5 0-.7.1-.2.2-.4.4-.4.7-.1.5.3 1 .8 1.1h.2c.2 0 .4.1.5.1.8.2 1.2.8 1.1 1.7 0 .3-.1.6-.3.9-.5.6-.7 1.3-.7 2.1 0 .5-.2.8-.5 1.1-.6.5-1.3.8-2 .9-.3.1-.7.1-1.1 0-.3 0-.5-.1-.8-.3-.3-.2-.7-.3-1-.2-.3.1-.6.3-.7.6-.7 1.4-2.2 1.6-3.3 1.2-.7-.2-1.3-.6-1.8-1.1-.3-.3-.6-.5-1-.5-.2 0-.4 0-.6.1-.5.2-1 .1-1.5 0-.7-.1-1.4-.4-2.1-.7 1.2-.7 1.8-1.8 2-3.3.2-1.2 0-2.3-.4-3.3-.2-.4-.4-.7-.6-1s-.4-.4-.7-.4c-.3 0-.6.1-.8.3-.4.4-.4 1 0 1.4.2.2.3.5.4.8-.1 0-.3 0-.4-.1-.5 0-1.1 0-1.5.3-.2.1-.5.3-.7.5-.4.3-.4.9 0 1.3.3.4.9.4 1.3.1s.9-.3 1.4 0c-.2 1.1-.7 1.7-1.7 2.1-.2.1-.4.1-.6.2l-.4.1c-.1 0-.4.1-.5.3 0 0-.1.1-.3.1h-.1c-.8.2-1.3.2-1.9.1-.3-.1-.4-.2-.5-.2-.2-.2-.3-.4-.3-.6-.1-1.2-.4-2.1-1-2.9-.9-1.1-2.1-1.7-3.7-1.8h-1c-.3 0-.6.1-.8.3-.2.2-.2.5-.2.7 0 .4.3.9 1.1.9h.4c.4 0 .8 0 1.1.1 1.2.2 1.9 1 2.1 2.4v.2c-1 .2-2.1-.2-2.7-1-.3-.3-.6-.5-1.1-.6h-.2c-.4 0-.9-.1-1.3-.2-1.3-.3-1.9-1.1-1.9-2.4 0-.3 0-.6.1-.9 0-.4 0-.7-.2-1-.4-.8-.6-1.5-.5-2.3 0-.2 0-.2.1-.3.2-.3.4-.5.7-.7 1-.6 2.1-.8 3.3-.7.8.1 1.5.5 2.1 1.4.1.2.2.3.3.5.7 1.1 1.8 1.6 3.1 1.3l1.2-.3c.7-.3 1.3-.3 2-.1 1 .3 1.9.2 2.8-.2.6-.3 1-.7 1.3-1.2.2-.3.1-.7-.1-1s-.5-.4-.9-.4c-.3 0-.6.2-.8.5-.2.3-.4.5-1 .6h-.7c-1-.3-2-.3-2.9 0v-.2c-.1-1.1.1-2.1.4-3 .2-.5.5-.9.9-1.1.2-.1.4-.2.6-.2.7-.2.9-.6.9-1 0-.6-.5-.9-1.1-.9-.5 0-1 .2-1.5.6-.9.6-1.5 1.5-1.8 2.6-.4 1.4-.4 2.7-.3 3.8-.2 0-.3-.2-.5-.4l-.1-.1c-.3-.4-.7-.9-1.1-1.3-1-1-2.2-1.4-3.7-1.4-.5 0-1 .1-1.4.2.1-.1.2-.2.4-.3.3-.2.5-.5.5-.9.2-.7.5-1.3.8-1.9.4-.7 1-1.2 1.7-1.6.1-.1.3-.2.4-.2.2-.1.4-.2.7-.3.2-.1.5-.3.6-.6.5-1 1.3-1.5 2.4-1.5.4 0 .7 0 1.1.1.2 0 .4 0 .6.1h.5c.7.2 1.6.4 2.3.9.4.2.6.5.7.7.1.1.1.3.2.5.1.6.6.9 1.1.9.5-.1.9-.6.8-1.2-.1-.7-.4-1.3-.9-1.8-.6-.6-1.3-1-2.3-1.4-.1 0-.1 0-.2-.1 1.4-1.2 3.1-1.7 5.1-1.4.4.1.9.2 1.3.3.5.1.9 0 1.2-.3.5-.4 1.2-.5 1.8-.5-1.3 1.2-1.9 2.8-1.7 4.6.1.9.4 1.7.9 2.4l.5.6c.2.3.5.7.7 1 .3.4.4.7.5 1.1 0 .4 0 .4-.3.5-.5.1-1 0-1.5-.1-.1 0-.2 0-.3-.1-.1 0-.3-.1-.4-.1-.5-.1-1 .2-1.1.7s.2 1 .7 1.2c.9.2 1.8.4 2.8.3.8-.1 1.4-.5 1.7-1 .4-.5.5-1.2.3-2-.1-.6-.4-1.2-.7-1.6l-.9-1.2-.1-.2c.3 0 .5-.1.7 0 .1 0 .2.1.3.3 0 .1.1.2.1.3l.1.2c.2.5.7.7 1.2.5s.8-.7.7-1.2c-.4-1.4-1.3-2.2-2.6-2.2-.5 0-1 .1-1.5.2v-.4c.1-1.5.7-2.6 2-3.3.3-.2.7-.2 1-.3.1 0 .3-.1.4-.1 1.9-.5 3.8-.3 5.7.5.4.2.7.4 1 .6-1.7.8-2.6 2.4-2.5 4.3 0 .3.1.6.1.9.1.6.6.9 1.1.8.3 0 .5-.2.6-.4.2-.2.2-.5.2-.8-.1-.6-.1-1.1 0-1.6.1-.3.3-.6.5-.8-.1.9.2 1.7.9 2.4.4.5.9.8 1.4 1.1.5.2.6.6.6 1.1v.9c0 .6.3 1.1.9 1.1.3 0 .5-.1.7-.3.2-.2.3-.5.3-.8v-1.7c-.1-.8-.5-1.5-1.3-2-.5-.3-.9-.6-1.2-.9-.3-.3-.4-.6-.4-1s.3-.6.4-.7c.3-.2.6-.2.9-.2.7.2 1.4.6 1.9 1.2 1.2 1.3 1.7 2.6 1.7 4.2 0 .3.1.8.7 1.2.6.4.9.8 1 1.3.1.4 0 .9-.1 1.4-.1.2-.2.5-.3.7-.1.2-.1.6 0 1z"></path>
        <path class="red-box" d="M62.1 62.1V120H120V62.1H62.1zm50.1 33.8c-.1.8-.2 1.4-.4 2.1-.3 1.7-.8 3-1.4 4.2-.8 1.5-1.8 2.5-3.1 3.1-.6.3-1.2.4-1.8.6-.4.1-.7.2-.9.4l-.6.6-.3.3c-.5.5-1.1.9-1.7 1.1.2.8.4 1.6.7 2.2.4.9.4 1.7-.2 2.5-.4.5-.9.9-1.5 1.2-.7.3-1.4.5-2.2.5h-.1c-1.1 0-1.9-.6-2.3-1.7-.1-.2-.1-.3-.2-.5 0-.2-.1-.3-.1-.4-.4-1.2-1.2-2-2.3-2.4-.6-.2-1.3-.4-1.9-.7-1.4-.5-2.3-1.4-2.9-2.8-.4-1-.7-1.9-.9-2.9-1.5.1-2.9-.4-4.3-1-.5-.2-.9-.4-1.3-.6l-.2-.1c-1.3.4-2.4.5-3.4.3-.8-.2-1.4-.5-1.9-1-1.6.3-3.1-.1-4.4-1.1-.1 0-.2-.1-.2-.2-.1-.2-.3-.2-.7-.3-.8 0-1.5-.3-2.2-.7-1.5-.8-2.3-2.1-2.5-3.8v-1.5c-1.1-2.5-.9-4.8.7-7.1.3-.3.5-.7.8-1 .2-.2.3-.3.4-.5.1-.1.2-.2.2-.3.1-.2.2-.4.3-.7.2-.4.3-.7.5-1.1.7-1.4 1.8-2.4 3.4-3.2.2-.1.4-.2.5-.4.9-1.4 2.2-2.2 4-2.3.5 0 1 0 1.4.1h.2c1.4-1.6 3.2-2.6 5.3-2.9 1.2-.2 2.5-.1 3.9.3 1.3-.8 2.7-.9 4.3-.4.3.1.6.2.9.4 2.8-.9 5.5-.7 8.2.5 1 .4 1.7 1.1 2.3 1.9 1.6-.1 3.1.5 4.4 1.9 1.5 1.5 2.3 3.3 2.4 5.4 1.6 1.2 2.1 3.2 1.4 5.3 0 .1-.1.2-.2.4-.1.1-.1.2 0 .6.3 1 .5 1.7.7 2.5.3 1.4 0 2.4-.8 3.2zM7.2 58H.1V34.8c2.8.4 5.3 1.8 6.8 4.1 3.4 5.1 3.3 12.9.3 19.1zm6.4-36.3c-.7 5.4-4.1 8.9-8.8 9.1-1.7.1-3.2-.1-4.7-.5V.1h10.4c1.3 5.8 3.5 18.4 3.1 21.6zm10.4 19c-4.1 1.7-8.4.4-9.7-2.9-1.3-3.3 1-7.3 5.1-9s8.4-.4 9.7 2.9c1.3 3.3-1 7.3-5.1 9zM33 .1c-.4 4.5-3.8 17.8-7.1 19.9-4.8 3-9 .9-9.5-5-.1-1.2-1.6-10.2-1.6-14.9H33zM34.4 58H11.6c.3-.9.6-1.9 1.1-2.8 3.6-7.8 10.5-10.1 16-5.1 1.7 1.6 3.8 4.6 5.7 7.9zM58 .1v30.3c-3.8.3-11.8-.2-13.6-.4-6.2-.5-9.9-4-10.5-10.4-.3-3 1.1-13.8 2.8-19.5H58zm0 35V58H38c-1.7-3.2-3.2-6.5-3.8-8.7-.6-2.1-.8-4.5-.7-6.8.1-2.8 1.4-5.3 3.9-6.5 3.7-1.7 15.2-1.8 20.6-.9z"></path>
    </g>
</svg>		